PathFileType	4	(X/Y/Z)	Run_500 04
DataRate	CameraRate	NumFrames	NumMarkers	Units	OrigDataRate	OrigDataStartFrame	OrigNumFrames
100	100	5	41	mm	100	78	125
Frame#	Time	RASI			RPSI			RTH1			RTH2			RTH3			LTH1			LTH2			LTH3			RTB1			RTB2			RTB3			LTB1			LTB2			LTB3			RCAL			RTOE			RMT5			LCAL			LTOE			LACR			RACR			CLAV			C7			RUA1			RUA2			RUA3			RLEL			RMEL			LUA1			LUA2			LUA3			LLEL			LMEL			RFAsuperior			RFAradius			RFAulna			LFAsuperior			LFAradius			LFAulna			LPSI			LASI			
		X1	Y1	Z1	X2	Y2	Z2	X3	Y3	Z3	X4	Y4	Z4	X5	Y5	Z5	X6	Y6	Z6	X7	Y7	Z7	X8	Y8	Z8	X9	Y9	Z9	X10	Y10	Z10	X11	Y11	Z11	X12	Y12	Z12	X13	Y13	Z13	X14	Y14	Z14	X15	Y15	Z15	X16	Y16	Z16	X17	Y17	Z17	X18	Y18	Z18	X19	Y19	Z19	X20	Y20	Z20	X21	Y21	Z21	X22	Y22	Z22	X23	Y23	Z23	X24	Y24	Z24	X25	Y25	Z25	X26	Y26	Z26	X27	Y27	Z27	X28	Y28	Z28	X29	Y29	Z29	X30	Y30	Z30	X31	Y31	Z31	X32	Y32	Z32	X33	Y33	Z33	X34	Y34	Z34	X35	Y35	Z35	X36	Y36	Z36	X37	Y37	Z37	X38	Y38	Z38	X39	Y39	Z39	X40	Y40	Z40	X41	Y41	Z41	

71	0.96	1134.373169	968.845413	-310.951302	959.089925	1027.732044	-401.566824	1112.278575	815.361997	-256.077853	1182.584667	739.514806	-268.115483	1179.474017	593.275139	-302.559628	1061.969622	807.319198	-624.940294	1111.555636	673.665327	-615.34762	1029.746399	563.715952	-614.665229	1260.269845	351.442929	-397.958351	1201.025221	249.253688	-367.34281	1211.539497	184.971676	-439.951659	869.0716159999999	438.934496	-532.465282	814.747469	486.461087	-570.849314	741.028151	489.827887	-511.460466	1077.022061	101.93208	-453.465296	1312.041949	76.619674	-458.156002	1305.263167	50.363649	-379.647224	651.448386	637.55074	-494.993718	572.1732479999999	413.388163	-474.33298	1185.260557	1501.874855	-567.980902	1158.643075	1461.766303	-231.172809	1217.342362	1412.363311	-371.090569	1107.063315	1513.855626	-406.05952	1059.227994	1364.639586	-150.066623	992.222963	1380.490079	-166.707479	978.718114	1314.177798	-137.037224	917.395707	1263.326456	-115.303745	894.601419	1259.421146	-205.617705	1121.51388	1410.409504	-661.3992459999999	1033.889741	1376.770955	-661.420192	1061.890248	1305.827399	-707.39883	1034.532161	1247.566753	-736.802576	984.566643	1231.436522	-661.4762500000001	996.561601	1225.224633	-118.516347	1141.272897	1158.584114	-186.056373	1106.995526	1102.47099	-158.442947	1104.090368	1190.83303	-714.3797970000001	1226.800087	1127.250807	-604.604854	1208.969255	1066.60232	-641.527506	974.534907	1020.632637	-496.310612	1147.174581	960.029143	-567.048175	
72	0.97	1131.650758	967.9232500000001	-309.561885	957.624597	1024.852973	-402.797262	1107.576293	814.866999	-255.618883	1175.887846	737.0934140000001	-268.035599	1172.336334	590.321232	-303.182224	1065.912353	803.404373	-624.764641	1124.037234	673.889851	-616.501064	1050.8661	558.752592	-615.65739	1235.415938	346.2274	-401.134069	1168.188182	248.967578	-367.413859	1170.398606	183.735133	-440.902365	900.649859	434.062932	-531.683081	845.721177	478.87846	-572.404805	771.454383	482.931217	-513.368877	1028.181695	104.282884	-453.176048	1262.914255	75.22882199999999	-459.375768	1256.74416	51.062288	-380.500994	676.402974	629.727886	-499.354857	605.2764550000001	402.955831	-479.175173	1182.169709	1497.319466	-569.472199	1160.975079	1454.682437	-229.369837	1217.642744	1407.489723	-372.560128	1108.229576	1512.475775	-404.072189	1071.543715	1344.463786	-148.746121	1002.432736	1359.813463	-155.853579	993.180958	1290.595325	-131.339506	937.01156	1237.58407	-105.921108	907.756332	1232.562634	-193.809597	1112.593245	1407.216513	-660.87527	1023.556834	1375.177788	-656.174557	1047.85669	1304.133277	-704.428599	1017.361237	1247.507061	-734.506928	970.924481	1230.747342	-657.3485480000001	1017.705793	1203.351134	-113.12468	1161.280493	1145.023323	-185.750133	1129.922345	1086.879685	-157.773378	1085.562883	1186.443265	-716.44679	1207.534461	1109.065168	-618.442018	1183.583433	1051.472397	-657.851868	972.514938	1017.679276	-499.187108	1144.03104	955.115473	-567.425242	
73	0.98	1130.165693	968.211323	-309.087643	957.413969	1023.066146	-403.838335	1103.574206	813.001745	-256.491685	1167.670947	732.834113	-269.518404	1159.275547	584.727168	-304.647695	1069.22584	802.670248	-624.615174	1138.217988	676.868333	-617.2694279999999	1074.546023	557.979961	-616.764273	1205.897299	337.720264	-402.851733	1131.439732	245.549105	-367.765931	1127.67242	180.44017	-441.292008	933.773326	429.993129	-530.905087	878.133696	472.088987	-573.793309	802.651293	474.551926	-515.38958	979.1776609999999	106.521639	-452.716683	1213.80084	73.752537	-459.302029	1207.410673	50.178874	-380.509285	699.248508	618.521154	-503.010262	640.591127	388.219329	-484.354158	1178.123584	1494.799672	-570.672584	1163.195502	1449.801722	-229.002394	1217.409629	1404.668387	-374.205577	1108.411705	1511.954928	-402.759971	1084.933004	1329.379501	-149.669356	1014.261813	1342.53263	-148.082392	1008.974358	1272.105438	-127.265333	959.349122	1215.080135	-99.348246	922.205341	1208.674552	-184.00672	1103.749524	1406.816351	-660.353619	1013.484875	1376.92904	-650.589265	1033.500778	1306.758059	-702.033942	1000.09173	1251.332942	-732.666176	956.392916	1233.682565	-653.979028	1042.03844	1185.761814	-111.532013	1183.207009	1135.903723	-187.375434	1155.024249	1075.598239	-159.223963	1066.74504	1186.69514	-718.894454	1186.119532	1096.741526	-630.901607	1156.316305	1042.547157	-671.950155	971.141294	1016.911064	-500.861404	1141.721937	952.864403	-567.627962	
74	0.99	1129.405035	968.728487	-309.179798	958.5542349999999	1022.464054	-404.579871	1099.674604	809.1890990000001	-257.877666	1158.59018	725.834832	-271.283171	1140.825657	577.578401	-306.502207	1071.351176	803.612558	-624.5049	1153.559007	682.450332	-617.333452	1100.038371	560.839122	-617.735222	1172.396207	327.273613	-403.814637	1092.400421	240.45477	-368.76728	1083.669417	176.694746	-441.751336	967.364191	426.994562	-530.368013	910.875417	466.334713	-574.715547	834.058885	465.056818	-517.091259	930.159439	109.125193	-452.122568	1164.466907	72.036219	-459.432743	1157.334427	49.1157	-380.432261	720.465075	603.924117	-505.029979	677.887849	369.901823	-490.245686	1172.623355	1494.690313	-571.640865	1165.885615	1447.386958	-229.642295	1217.058479	1403.900348	-375.970644	1107.241641	1511.149501	-401.72989	1097.354435	1321.055685	-151.207405	1025.924987	1329.539118	-144.396018	1025.1385	1259.438542	-125.126088	982.235555	1198.012878	-96.13606900000001	937.639497	1190.146473	-177.637147	1094.098946	1409.561995	-660.033731	1002.971059	1382.407964	-645.252885	1018.469805	1313.928283	-700.354943	982.534046	1259.676057	-731.477895	941.046568	1241.05745	-651.680464	1067.082409	1174.390371	-113.386512	1205.6351	1133.54039	-191.28639	1181.497261	1070.999942	-163.139262	1046.680144	1191.383947	-722.0294709999999	1163.402118	1091.496062	-641.2429979999999	1128.529286	1040.509078	-682.698315	970.2423240000001	1017.804683	-500.744896	1140.46404	953.378102	-567.56512	
75	1	1128.859504	969.0438799999999	-309.206021	960.785422	1023.045056	-404.880747	1095.026491	804.2143150000001	-259.120501	1148.62648	716.909365	-272.406331	1118.97171	570.599721	-308.245641	1072.871198	805.1014699999999	-624.619705	1169.179558	690.848891	-616.342658	1125.971387	566.862659	-617.9107279999999	1135.613778	317.397298	-404.929584	1051.807337	235.848479	-369.992229	1038.441415	174.231613	-442.199354	1000.669422	425.260342	-529.882019	943.003332	461.627477	-574.925429	865.340472	454.893097	-518.150742	881.130936	112.427781	-451.180792	1114.600652	70.642213	-460.025028	1106.748877	48.837198	-380.530061	740.610977	585.878455	-505.15924	717.202016	348.878362	-496.819593	1165.654735	1496.9897	-572.224658	1169.326053	1447.607255	-230.547485	1216.857737	1405.166025	-377.885438	1105.066942	1510.347665	-400.539248	1107.601089	1318.644982	-152.210883	1036.171941	1321.182988	-143.711341	1040.654261	1251.834558	-124.97237	1003.206341	1187.206403	-95.976669	954.0219509999999	1177.876182	-175.467503	1082.977753	1415.67615	-659.654339	991.713424	1391.394656	-640.528412	1002.835276	1324.954322	-699.256173	964.491585	1272.185079	-730.697641	924.890745	1252.967861	-649.990586	1089.688786	1169.737362	-117.205824	1226.664217	1139.115392	-197.423084	1207.835222	1074.507445	-169.42225	1025.03648	1200.134929	-725.350723	1140.550534	1093.831282	-649.363825	1101.721806	1045.365247	-690.0510839999999	969.826552	1019.653931	-499.285836	1140.136065	955.750695	-567.0587860000001	
